:SAMPLES-PER-SECOND 30
:FULLY-SPECIFIED
:DEGREES
31
root  71.2706 40.2426 -25.9742 177.245 -81.4426 -174.709
RightUpLeg  -2.35004 -6.24893 -3.41815
RightLeg  8.12292 -1.09875 1.20133
RightFoot  -7.60927 -0.0822094 0.949594
RightToes  -1.74624e-010 0 -3.6325e-017
Spine  0.731709 -0.755729 0.491442
Spine1  6.69985 -1.47851 2.24953
HEad  -9.80611 6.06113 -6.19349
LeftShoulder1  8.34689 -11.6652 -48.0243
LeftArm  11.9768 10.3808 -32.7288
LeftForeArm  40.0893 -27.0586 -3.52173
LeftHand  -0.244104 0.0205437 5.32207
RightShoulder  5.15127 8.23317 37.8537
RightArm  5.10116 -15.3887 35.1725
RightForeArm  -4.78819 21.0981 5.57636
RightHand  -0.973526 2.0186 -15.3811
LeftUpLeg  2.60698 6.99057 4.40785
LeftLeg  3.408 16.288 -4.39881
LeftFoot  -7.42812 0.103734 -1.7285
LeftToes  1.28235e-010 -1.10989e-010 2.53219e-011
32
root  70.9264 40.1982 -26.1532 177.906 -81.4218 -175.339
RightUpLeg  -1.83588 -6.52639 -3.47794
RightLeg  8.36763 -0.826951 1.31412
RightFoot  -8.75053 -0.0915087 1.43412
RightToes  -1.74624e-010 0 -3.6325e-017
Spine  0.686478 -0.973593 0.910801
Spine1  6.69203 -1.58431 1.72145
HEad  -10.7962 6.32716 -6.31926
LeftShoulder1  8.35476 -11.9004 -47.3267
LeftArm  11.136 11.2981 -29.4578
LeftForeArm  34.8178 -33.5458 -5.44718
LeftHand  -0.244104 0.0205437 5.32207
RightShoulder  4.99931 8.18871 36.7552
RightArm  8.68691 -17.2911 33.9543
RightForeArm  -2.47008 27.4536 5.96675
RightHand  -0.617958 0.0947612 -13.0016
LeftUpLeg  3.15668 7.13612 4.62209
LeftLeg  3.52814 16.0632 -4.41783
LeftFoot  -8.02974 0.106566 -2.02129
LeftToes  1.28235e-010 -1.10989e-010 2.53219e-011
33
root  70.5271 40.1525 -26.3707 177.395 -81.7371 -174.722
RightUpLeg  -1.08331 -6.74377 -3.38578
RightLeg  8.35041 -0.948032 1.50127
RightFoot  -9.88026 -0.0926759 2.00522
RightToes  -1.74624e-010 0 -3.6325e-017
Spine  0.577141 -1.23935 1.47729
Spine1  6.61586 -1.77831 1.35083
HEad  -11.6778 6.45453 -6.61107
LeftShoulder1  8.22243 -11.8037 -46.8614
LeftArm  7.83466 12.8889 -27.0982
LeftForeArm  33.7562 -41.4468 -7.69893
LeftHand  -0.244104 0.0205437 5.32207
RightShoulder  4.85422 8.08828 35.8938
RightArm  8.14577 -20.1344 32.3411
RightForeArm  1.13306 35.1633 7.85935
RightHand  -0.290064 -2.00567 -9.81485
LeftUpLeg  3.85046 7.27201 5.06165
LeftLeg  3.28994 15.4254 -4.46156
LeftFoot  -8.52686 0.114749 -2.58291
LeftToes  1.28235e-010 -1.10989e-010 2.53219e-011
34
root  70.0905 40.0898 -26.6662 177.283 -82.1641 -174.133
RightUpLeg  -0.849772 -6.78101 -3.00584
RightLeg  8.71567 -1.44671 1.43701
RightFoot  -11.1447 -0.0796019 2.20033
RightToes  -1.74624e-010 0 -3.6325e-017
Spine  -0.182907 -1.32786 1.56289
Spine1  6.88303 -1.92677 1.51537
HEad  -12.0338 6.40147 -6.90434
LeftShoulder1  7.90576 -11.4556 -46.0815
LeftArm  4.38974 14.6724 -25.6225
LeftForeArm  38.8934 -51.0401 -10.8798
LeftHand  -0.244104 0.0205437 5.32207
RightShoulder  4.66892 7.86733 35.0971
RightArm  6.80288 -23.6379 31.3779
RightForeArm  3.16118 44.1128 10.6827
RightHand  -0.129374 -3.72525 -8.10382
LeftUpLeg  4.03371 7.39238 5.56323
LeftLeg  3.40677 14.7393 -4.34836
LeftFoot  -9.02086 0.121465 -3.30856
LeftToes  1.28235e-010 -1.10989e-010 2.53219e-011
35
root  69.6466 39.98 -27.0426 179.028 -82.3678 -175.163
RightUpLeg  -1.41212 -6.89228 -2.48571
RightLeg  10.0305 -1.731 1.02618
RightFoot  -12.727 -0.0619232 2.028
RightToes  -1.74624e-010 0 -3.6325e-017
Spine  -1.16779 -1.09541 1.07914
Spine1  7.33418 -1.82312 2.07753
HEad  -12.5192 6.05396 -7.25734
LeftShoulder1  7.53642 -11.0319 -45.1788
LeftArm  2.26297 15.9421 -24.7626
LeftForeArm  44.3431 -60.3089 -15.5948
LeftHand  -0.244104 0.0205437 5.32207
RightShoulder  4.64585 7.8419 34.9855
RightArm  4.30567 -27.5004 31.493
RightForeArm  5.19617 53.5033 14.9151
RightHand  0.00572268 -5.85589 -7.39303
LeftUpLeg  3.52244 7.48854 5.92571
LeftLeg  4.63344 14.4292 -3.94157
LeftFoot  -10.2327 0.101361 -4.1719
LeftToes  1.28235e-010 -1.10989e-010 2.53219e-011
